#N canvas 58 700 1117 459 10;
#X obj 43 41 dumpOSC 1234;
#X obj 46 79 route /lumid;
#X obj 44 104 unpack f f f f f f f f f f f f f f f f f;
#X obj 410 91 print;
#X floatatom 77 210 5 0 0 0 - - -;
#X obj 77 230 / 255;
#X obj 78 306 ead~ 12 23 222;
#X obj 77 328 *~;
#X obj 78 255 sel 1;
#X floatatom 168 211 5 0 0 0 - - -;
#X obj 168 231 / 255;
#X obj 169 307 ead~ 12 23 222;
#X obj 167 332 *~;
#X obj 169 256 sel 1;
#X floatatom 259 211 5 0 0 0 - - -;
#X obj 259 231 / 255;
#X obj 260 307 ead~ 12 23 222;
#X obj 259 329 *~;
#X obj 260 256 sel 1;
#X floatatom 351 211 5 0 0 0 - - -;
#X obj 351 231 / 255;
#X obj 352 307 ead~ 12 23 222;
#X obj 351 329 *~;
#X obj 352 256 sel 1;
#X floatatom 449 208 5 0 0 0 - - -;
#X obj 449 228 / 255;
#X obj 450 304 ead~ 12 23 222;
#X obj 449 326 *~;
#X obj 450 253 sel 1;
#X floatatom 540 209 5 0 0 0 - - -;
#X obj 540 229 / 255;
#X obj 541 305 ead~ 12 23 222;
#X obj 539 330 *~;
#X obj 541 254 sel 1;
#X floatatom 631 209 5 0 0 0 - - -;
#X obj 631 229 / 255;
#X obj 632 305 ead~ 12 23 222;
#X obj 631 327 *~;
#X obj 632 254 sel 1;
#X floatatom 723 209 5 0 0 0 - - -;
#X obj 723 229 / 255;
#X obj 724 305 ead~ 12 23 222;
#X obj 723 327 *~;
#X obj 724 254 sel 1;
#X obj 408 403 dac~;
#X obj 91 284 phasor~ 222;
#X obj 182 285 phasor~ 333;
#X obj 273 285 phasor~ 444;
#X obj 365 285 phasor~ 555;
#X obj 463 282 phasor~ 666;
#X obj 554 283 phasor~ 777;
#X obj 645 283 phasor~ 888;
#X obj 737 283 phasor~ 999;
#X connect 0 0 1 0;
#X connect 1 0 2 0;
#X connect 2 1 4 0;
#X connect 2 2 9 0;
#X connect 2 3 14 0;
#X connect 2 4 19 0;
#X connect 2 5 24 0;
#X connect 2 6 29 0;
#X connect 2 7 34 0;
#X connect 2 8 39 0;
#X connect 4 0 5 0;
#X connect 5 0 8 0;
#X connect 6 0 7 0;
#X connect 7 0 44 0;
#X connect 8 0 6 0;
#X connect 9 0 10 0;
#X connect 10 0 13 0;
#X connect 11 0 12 0;
#X connect 12 0 44 0;
#X connect 13 0 11 0;
#X connect 14 0 15 0;
#X connect 15 0 18 0;
#X connect 16 0 17 0;
#X connect 17 0 44 0;
#X connect 18 0 16 0;
#X connect 19 0 20 0;
#X connect 20 0 23 0;
#X connect 21 0 22 0;
#X connect 22 0 44 0;
#X connect 23 0 21 0;
#X connect 24 0 25 0;
#X connect 25 0 28 0;
#X connect 26 0 27 0;
#X connect 27 0 44 1;
#X connect 28 0 26 0;
#X connect 29 0 30 0;
#X connect 30 0 33 0;
#X connect 31 0 32 0;
#X connect 32 0 44 1;
#X connect 33 0 31 0;
#X connect 34 0 35 0;
#X connect 35 0 38 0;
#X connect 36 0 37 0;
#X connect 37 0 44 1;
#X connect 38 0 36 0;
#X connect 39 0 40 0;
#X connect 40 0 43 0;
#X connect 41 0 42 0;
#X connect 42 0 44 1;
#X connect 43 0 41 0;
#X connect 45 0 7 1;
#X connect 46 0 12 1;
#X connect 47 0 17 1;
#X connect 48 0 22 1;
#X connect 49 0 27 1;
#X connect 50 0 32 1;
#X connect 51 0 37 1;
#X connect 52 0 42 1;
